<svg width="336" height="138" viewBox="0 0 336 138" fill="none" xmlns="http://www.w3.org/2000/svg">
<path d="M76.9623 47.8756C83.072 30.7971 61.7623 20.2088 52.9379 19.0622L48.9983 8.21996C58.4347 8.92277 82.457 16.1729 87.8854 30.6444C94.6711 48.7339 84.8741 61.8712 75.0132 66.6263C62.895 72.4701 53.9678 68.9188 52.821 68.3232L65.2917 84.7741L69.7259 113.237L30.4913 59.953L40.0656 55.0441C51.6641 58.888 70.9139 64.7828 76.9623 47.8756Z" fill="#FAF9F9"/>
<path d="M28.4844 0L113.878 28.3009L109.536 40.4394L24.1418 12.1385L28.4844 0Z" fill="#FAF9F9"/>
<path d="M19.7995 24.277L105.193 52.5778L100.851 64.7163L15.4571 36.4154L19.7995 24.277Z" fill="#FAF9F9"/>
<path d="M65.2813 84.7536L76.8613 100.893L75.1649 109.358L67.0582 109.767L54.3135 92.0201L65.2813 84.7536Z" fill="#FAF9F9"/>
<path d="M10.5376 72.6084L46.7817 121.312L35.6238 127.797L0 79.6226L10.5376 72.6084Z" fill="#FAF9F9"/>
<path d="M46.7817 121.312L35.6238 127.797C43.1834 136.122 56.6694 142.608 70.7093 133.768C83.4917 125.72 83.8006 110.951 76.8613 100.893L75.1649 109.358L67.0582 109.767C70.1111 116.436 67.3607 121.829 63.156 124.476C58.1103 127.653 49.6013 124.833 46.7817 121.312Z" fill="#FAF9F9"/>
<path d="M86.3474 112.184C86.3474 107.651 87.2584 103.512 89.0804 99.765C90.9023 96.0184 93.4227 93.0573 96.6414 90.8817C99.8602 88.7062 103.535 87.6185 107.664 87.6185C111.187 87.6185 114.345 88.4947 117.139 90.2471C119.993 91.9393 122.21 94.1147 123.789 96.7737V69.7613H135.996V122.336C135.996 123.665 136.208 124.602 136.633 125.146C137.059 125.629 137.787 125.932 138.82 126.052V135.933C136.633 136.356 134.903 136.567 133.627 136.567C131.441 136.567 129.619 136.023 128.161 134.936C126.765 133.848 125.975 132.428 125.793 130.675L125.611 127.684C123.849 130.645 121.45 132.911 118.414 134.482C115.438 136.054 112.31 136.839 109.031 136.839C104.597 136.839 100.68 135.752 97.2792 133.576C93.8782 131.34 91.206 128.379 89.2625 124.693C87.3191 120.946 86.3474 116.776 86.3474 112.184ZM123.789 118.529V107.198C122.817 104.539 121.147 102.333 118.778 100.581C116.41 98.8284 113.98 97.9522 111.49 97.9522C109 97.9522 106.814 98.647 104.931 100.037C103.049 101.366 101.591 103.149 100.559 105.385C99.5262 107.561 99.01 109.917 99.01 112.455C99.01 115.054 99.5869 117.441 100.741 119.616C101.895 121.732 103.443 123.424 105.387 124.693C107.391 125.901 109.668 126.506 112.219 126.506C114.527 126.506 116.805 125.75 119.052 124.24C121.359 122.729 122.939 120.825 123.789 118.529Z" fill="#FAF9F9"/>
<path d="M192.343 135.933H180.135V109.283C180.135 105.597 179.407 102.847 177.95 101.034C176.552 99.2212 174.608 98.3147 172.119 98.3147C170.6 98.3147 169.022 98.7378 167.382 99.5837C165.803 100.43 164.346 101.608 163.009 103.119C161.734 104.569 160.792 106.261 160.185 108.195V135.933H147.979V69.7613H160.185V97.227C161.946 94.2055 164.346 91.8486 167.382 90.1566C170.418 88.4645 173.728 87.6185 177.311 87.6185C181.38 87.6185 184.508 88.525 186.695 90.3379C188.881 92.1508 190.37 94.4774 191.159 97.3175C191.948 100.158 192.343 103.149 192.343 106.292V135.933Z" fill="#FAF9F9"/>
<path d="M199.678 121.883C199.678 118.801 200.527 116.112 202.228 113.815C203.989 111.458 206.419 109.645 209.516 108.376C212.614 107.107 216.166 106.473 220.175 106.473C222.178 106.473 224.213 106.654 226.278 107.017C228.344 107.319 230.135 107.772 231.653 108.376V105.838C231.653 102.817 230.742 100.49 228.921 98.8585C227.158 97.227 224.517 96.4112 220.994 96.4112C218.383 96.4112 215.894 96.8644 213.524 97.7708C211.156 98.6773 208.666 100.007 206.054 101.759L202.137 93.7823C205.296 91.7278 208.515 90.1869 211.793 89.1594C215.134 88.1322 218.627 87.6185 222.27 87.6185C229.072 87.6185 234.355 89.3105 238.121 92.6946C241.948 96.0788 243.86 100.913 243.86 107.198V122.336C243.86 123.665 244.072 124.602 244.498 125.146C244.923 125.629 245.682 125.932 246.775 126.052V135.933C245.682 136.174 244.68 136.326 243.769 136.386C242.919 136.507 242.19 136.567 241.583 136.567C239.154 136.567 237.301 136.023 236.026 134.936C234.751 133.848 233.992 132.518 233.748 130.947L233.474 128.5C231.35 131.219 228.738 133.304 225.641 134.754C222.605 136.144 219.476 136.839 216.257 136.839C213.038 136.839 210.185 136.205 207.694 134.936C205.205 133.606 203.23 131.824 201.772 129.588C200.376 127.291 199.678 124.723 199.678 121.883ZM229.375 124.33C230.894 122.88 231.653 121.49 231.653 120.16V115.356C228.495 114.087 225.306 113.453 222.087 113.453C218.869 113.453 216.257 114.147 214.254 115.537C212.249 116.867 211.247 118.65 211.247 120.886C211.247 122.698 211.975 124.33 213.433 125.781C214.891 127.231 216.987 127.956 219.719 127.956C221.542 127.956 223.303 127.624 225.002 126.959C226.763 126.294 228.221 125.418 229.375 124.33Z" fill="#FAF9F9"/>
<path d="M251.987 121.883C251.987 118.801 252.838 116.112 254.539 113.815C256.3 111.458 258.73 109.645 261.827 108.376C264.923 107.107 268.477 106.473 272.485 106.473C274.489 106.473 276.524 106.654 278.588 107.017C280.653 107.319 282.445 107.772 283.963 108.376V105.838C283.963 102.817 283.052 100.49 281.23 98.8585C279.469 97.227 276.827 96.4112 273.305 96.4112C270.694 96.4112 268.203 96.8644 265.835 97.7708C263.465 98.6773 260.976 100.007 258.365 101.759L254.448 93.7823C257.605 91.7278 260.824 90.1869 264.104 89.1594C267.444 88.1322 270.936 87.6185 274.58 87.6185C281.383 87.6185 286.666 89.3105 290.431 92.6946C294.257 96.0788 296.171 100.913 296.171 107.198V122.336C296.171 123.665 296.383 124.602 296.807 125.146C297.233 125.629 297.993 125.932 299.086 126.052V135.933C297.993 136.174 296.99 136.326 296.079 136.386C295.229 136.507 294.501 136.567 293.892 136.567C291.463 136.567 289.611 136.023 288.335 134.936C287.06 133.848 286.301 132.518 286.059 130.947L285.785 128.5C283.659 131.219 281.048 133.304 277.95 134.754C274.914 136.144 271.786 136.839 268.568 136.839C265.349 136.839 262.494 136.205 260.005 134.936C257.514 133.606 255.541 131.824 254.083 129.588C252.687 127.291 251.987 124.723 251.987 121.883ZM281.686 124.33C283.203 122.88 283.963 121.49 283.963 120.16V115.356C280.805 114.087 277.617 113.453 274.398 113.453C271.179 113.453 268.568 114.147 266.563 115.537C264.56 116.867 263.557 118.65 263.557 120.886C263.557 122.698 264.286 124.33 265.744 125.781C267.201 127.231 269.296 127.956 272.029 127.956C273.851 127.956 275.612 127.624 277.313 126.959C279.074 126.294 280.532 125.418 281.686 124.33Z" fill="#FAF9F9"/>
<path d="M336 98.9493C332.296 98.9493 328.986 99.6745 326.071 101.125C323.155 102.515 321.059 104.539 319.784 107.198V135.933H307.578V88.4342H318.783V98.5866C320.423 95.3235 322.548 92.7551 325.159 90.8817C327.832 89.0084 330.626 87.9811 333.541 87.7998C334.816 87.7998 335.635 87.8299 336 87.8904V98.9493Z" fill="#FAF9F9"/>
</svg>
